<?xml version="1.0" standalone="no"?>
<!DOCTYPE svg PUBLIC "-//W3C//DTD SVG 20010904//EN"
 "http://www.w3.org/TR/2001/REC-SVG-20010904/DTD/svg10.dtd">
<svg version="1.0" xmlns="http://www.w3.org/2000/svg"
 width="443.000000pt" height="443.000000pt" viewBox="0 0 443.000000 443.000000"
 preserveAspectRatio="xMidYMid meet">
<metadata>
Created by potrace 1.14, written by Peter Selinger 2001-2017
</metadata>
<g transform="translate(0.000000,443.000000) scale(0.100000,-0.100000)"
fill="#000000" stroke="none">
<path d="M2148 3975 c-2 -2 -61 -6 -133 -10 -71 -3 -146 -8 -165 -9 -60 -6
-144 -17 -160 -21 -8 -2 -40 -7 -70 -10 -43 -5 -213 -38 -310 -60 -338 -75
-599 -216 -657 -353 -28 -67 -22 -448 13 -707 29 -222 112 -547 174 -680 34
-73 70 -159 70 -166 0 -5 -8 -9 -18 -9 -25 0 -258 -79 -352 -119 -283 -121
-477 -289 -520 -451 -81 -303 257 -585 912 -759 105 -29 309 -72 403 -86 22
-3 51 -7 65 -10 23 -3 54 -7 163 -20 202 -24 318 -30 642 -30 281 0 475 7 556
19 13 3 53 7 89 11 68 6 95 10 200 26 36 6 74 12 85 14 116 18 294 58 423 95
422 121 718 302 814 497 30 61 33 76 33 158 0 83 -3 95 -34 155 -73 140 -262
285 -504 385 l-68 29 58 21 c256 97 459 285 520 483 40 133 56 307 38 417 -11
70 -48 164 -76 194 -47 52 -170 69 -500 70 l-136 1 0 133 c-1 73 -3 153 -7
177 -3 25 -8 70 -11 100 -9 87 -23 116 -80 169 -187 170 -713 309 -1275 336
-69 4 -137 8 -152 9 -15 2 -29 2 -30 1z"/>
</g>
</svg>
